<svg xmlns="http://www.w3.org/2000/svg" viewBox="-0.255006 -45.5129 36.02 45.51">
	<path d="M 14.739 -44.275 L 0.675 -30.211 c -0.909 0.909 -1.18 2.275 -0.687 3.463 c 0.493 1.188 1.654 1.959 2.938 1.956 l 5.903 -0.015 l 0.054 21.64 C 8.887 -1.414 10.312 0.004 12.065 0 l 11.522 -0.028 c 0.842 -0.002 1.648 -0.338 2.242 -0.935 s 0.927 -1.405 0.925 -2.247 l -0.054 -21.64 l 5.899 -0.014 c 1.286 -0.004 2.442 -0.781 2.931 -1.971 c 0.487 -1.189 0.21 -2.557 -0.703 -3.46 L 20.694 -44.29 C 19.043 -45.926 16.381 -45.92 14.739 -44.275 z" fill="#ffffff"/>
</svg>